<?xml version="1.0" encoding="UTF-8" standalone="no"?>
<!DOCTYPE svg PUBLIC "-//W3C//DTD SVG 1.1//EN" "http://www.w3.org/Graphics/SVG/1.1/DTD/svg11.dtd">
<svg width="100%" height="100%" viewBox="0 0 662 520" version="1.1" xmlns="http://www.w3.org/2000/svg" xmlns:xlink="http://www.w3.org/1999/xlink" xml:space="preserve" xmlns:serif="http://www.serif.com/" style="fill-rule:evenodd;clip-rule:evenodd;stroke-linejoin:round;stroke-miterlimit:2;">
    <g transform="matrix(1,0,0,1,-269.39,-340.22)">
        <path d="M518.09,340.22C442.949,340.22 385.34,399.142 377.41,471.86C315.765,489.665 269.37,541.954 269.39,607.1C269.39,687.159 335.328,752.3 415.79,752.3L508.778,752.3L508.774,752.304C506.657,741.019 505.575,729.562 505.54,718.081C505.544,667.972 525.446,619.917 560.88,584.491C596.31,549.061 644.364,529.155 694.47,529.155C744.579,529.155 792.634,549.061 828.06,584.491C863.49,619.921 883.396,667.975 883.396,718.081C883.376,723.776 883.099,729.472 882.564,735.143C911.38,716.416 930.626,684.194 930.626,647.6C930.626,596.358 890.665,558.639 841.696,549.721C832.11,478.744 776.192,421.311 702.306,421.311C683.447,421.342 666.154,429.264 648.802,436.256C627.193,381.424 579.099,340.252 518.182,340.225L518.09,340.22ZM694.47,576.38C656.888,576.38 620.849,591.31 594.27,617.884C567.696,644.454 552.766,680.497 552.766,718.084C552.766,755.662 567.696,791.705 594.27,818.274C620.844,844.848 656.883,859.778 694.47,859.778C732.048,859.778 768.091,844.848 794.66,818.274C821.234,791.704 836.164,755.661 836.164,718.084C836.164,680.502 821.234,644.459 794.66,617.884C768.09,591.31 732.047,576.38 694.47,576.38ZM661.075,623.61L727.958,623.61L727.958,718.075L788.935,718.075L694.47,812.54L600.005,718.075L661.075,718.075L661.075,623.61Z" style="fill-rule:nonzero;"/>
    </g>
</svg>
